<?xml version="1.0" encoding="UTF-8"?>
<svg width="22px" height="19px" viewBox="0 0 22 19" version="1.1" xmlns="http://www.w3.org/2000/svg" xmlns:xlink="http://www.w3.org/1999/xlink">
    <!-- Generator: sketchtool 53.2 (72643) - https://sketchapp.com -->
    <title>A74A1A7D-13B3-4C0E-9F0D-699CD101ADD6</title>
    <desc>Created with sketchtool.</desc>
    <g id="Page-1" stroke="none" stroke-width="1" fill="none" fill-rule="evenodd">
        <g id="Admin/Uploads/History" transform="translate(-434.000000, -655.000000)" fill="#FFC72C">
            <g id="icon/status/attention" transform="translate(434.000000, 655.000000)">
                <g id="noun_attention_620975" transform="translate(0.000000, 0.000000)">
                    <g id="Group" fill-rule="nonzero">
                        <path d="M14.6985507,2.13714286 C13.8695652,0.848571429 12.4666667,0.188571429 11.0956522,0.188571429 C9.72463768,0.188571429 8.35362319,0.848571429 7.49275362,2.13714286 L0.988405797,12.1 C-0.828985507,14.8971429 1.2115942,18.6057143 4.59130435,18.6057143 L17.6318841,18.6057143 C21.0115942,18.6057143 23.0521739,14.9285714 21.2347826,12.1 L14.6985507,2.13714286 Z M19.9594203,15.6514286 C19.4811594,16.5 18.5884058,17.0342857 17.6,17.0342857 L4.59130435,17.0342857 C3.60289855,17.0342857 2.71014493,16.5314286 2.23188406,15.6514286 C1.75362319,14.8028571 1.78550725,13.7657143 2.32753623,12.9485714 L8.83188406,2.95428571 C9.34202899,2.16857143 10.1710145,1.72857143 11.0956522,1.72857143 C12.0202899,1.72857143 12.8492754,2.16857143 13.3594203,2.95428571 L19.8637681,12.9485714 C20.4057971,13.7971429 20.4376812,14.8028571 19.9594203,15.6514286 Z" id="Shape"></path>
                        <polygon id="Path" points="11.3188406 12.6028571 11.6376812 6.03428571 10.3304348 6.03428571 10.6492754 12.6028571"></polygon>
                        <path d="M10.9681159,13.6085714 C10.457971,13.6085714 10.2028986,13.8914286 10.2028986,14.4571429 C10.2028986,14.74 10.2666667,14.96 10.426087,15.0857143 C10.5536232,15.2114286 10.7449275,15.2742857 10.9681159,15.2742857 C11.2231884,15.2742857 11.3826087,15.2114286 11.542029,15.0542857 C11.7014493,14.8971429 11.7333333,14.7085714 11.7333333,14.4257143 C11.7333333,14.1428571 11.6695652,13.9542857 11.542029,13.7971429 C11.3826087,13.7028571 11.2231884,13.6085714 10.9681159,13.6085714 Z" id="Path"></path>
                    </g>
                </g>
            </g>
        </g>
    </g>
</svg>