<svg xmlns="http://www.w3.org/2000/svg" width="30" height="30" viewBox="0 0 30 30">
    <g fill="none" fill-rule="evenodd">
        <path fill="#FFF" stroke="#0097A9" stroke-width="2" d="M15 29c7.732 0 14-6.268 14-14S22.732 1 15 1 1 7.268 1 15s6.268 14 14 14z"/>
        <path fill="#0097A9" d="M11.654 19a.413.413 0 0 1-.294-.122.393.393 0 0 1 .01-.564l1.482-1.402a.412.412 0 0 1 .517-.042l1.04.706 1.223-1.986a.412.412 0 0 1 .303-.191l.043-.002a.42.42 0 0 1 .296.12l1.053 1.065 2.582-4.223a.414.414 0 0 1 .56-.138c.193.114.256.36.14.548l-2.855 4.67a.412.412 0 0 1-.302.191l-.01.002h-.034a.412.412 0 0 1-.297-.12l-1.054-1.066-1.173 1.905a.41.41 0 0 1-.35.193.41.41 0 0 1-.233-.071l-1.122-.76-1.241 1.174a.413.413 0 0 1-.284.113zm-1.532 2a.404.404 0 0 1-.408-.399v-.02l-.002-.005.002-.014V10.59a.414.414 0 0 1-.55.056.395.395 0 0 1-.082-.559l.728-.949.03-.023.013-.018.023-.02a.2.2 0 0 1 .038-.02.365.365 0 0 1 .04-.02l.023-.009a.33.33 0 0 1 .114-.026L10.15 9h.002a.301.301 0 0 1 .116.027l.024.01.034.016.013.005.029.019c.022.016.037.035.044.044.002 0 .02.014.037.036l.713.93a.396.396 0 0 1-.082.558.413.413 0 0 1-.55-.056v9.613h10.062c.225 0 .408.18.408.4 0 .219-.183.398-.408.398h-10.47z"/>
    </g>
</svg>
