<svg xmlns="http://www.w3.org/2000/svg" width="13" height="15" viewBox="0 0 13 15">
    <g fill="#0097A9" fill-rule="evenodd">
        <path d="M4 5h1v6H4zM6 5h1v6H6zM8 5h1v6H8z"/>
        <path fill-rule="nonzero" d="M7.682 0H5.313C4.54 0 3.912.643 3.912 1.436v.884H.526A.532.532 0 0 0 0 2.86c0 .297.235.538.526.538h.933l.51 9.4c.067 1.237 1.067 2.205 2.277 2.203h4.508c1.21.002 2.21-.966 2.277-2.204l.51-9.4h.933c.29 0 .526-.24.526-.537a.532.532 0 0 0-.526-.539H9.083v-.884c0-.381-.148-.746-.41-1.016C8.41.151 8.053 0 7.682 0zM4.965 1.436c0-.199.156-.36.35-.36h2.367c.193 0 .35.161.35.36v.884h-3.07l.003-.884zm5.52 1.96l-.507 9.343a1.24 1.24 0 0 1-1.226 1.186h-4.51a1.24 1.24 0 0 1-1.227-1.186L2.51 3.397h7.974z"/>
    </g>
</svg>
