<svg xmlns="http://www.w3.org/2000/svg" width="26" height="26" viewBox="0 0 26 26">
    <g fill="none" fill-rule="evenodd" transform="translate(1 1)">
        <circle cx="12" cy="12" r="12" fill="#FFF" stroke="#0097A9"/>
        <circle cx="12" cy="12" r="9.882" fill="#0097A9"/>
        <path fill="#FFF" d="M15.749 14.84a.902.902 0 0 0-.267-.64l-2.211-2.212 2.21-2.211a.897.897 0 0 0 .267-.641.9.9 0 0 0-.265-.641.9.9 0 0 0-.642-.267.893.893 0 0 0-.641.266l-2.212 2.211-2.211-2.21a.9.9 0 0 0-.642-.267.898.898 0 0 0-.642.267.906.906 0 0 0 0 1.281l2.212 2.212L8.493 14.2a.906.906 0 0 0 .001 1.283.91.91 0 0 0 1.283 0l2.21-2.212 2.212 2.21c.171.172.4.266.642.266a.897.897 0 0 0 .641-.265.902.902 0 0 0 .267-.641z"/>
    </g>
</svg>
