<svg id="svg" version="1.1" width="15" height="15" viewBox="0 0 400 400" xmlns="http://www.w3.org/2000/svg" xmlns:xlink="http://www.w3.org/1999/xlink" ><g id="svgg"><path id="path0" d="M112.800 2.400 L 112.800 4.800 104.400 4.800 C 99.067 4.800,96.000 4.946,96.000 5.200 C 96.000 5.420,95.726 5.600,95.390 5.600 C 94.459 5.600,94.000 7.326,94.000 10.826 L 94.000 14.000 86.426 14.000 C 78.764 14.000,76.800 14.284,76.800 15.390 C 76.800 15.726,76.620 16.000,76.400 16.000 C 76.165 16.000,76.000 17.379,76.000 19.338 L 76.000 22.676 69.734 22.921 C 66.288 23.055,63.363 23.319,63.234 23.507 C 63.105 23.695,62.370 24.024,61.600 24.238 C 60.436 24.561,60.138 24.877,59.829 26.113 C 59.626 26.931,59.311 27.600,59.129 27.600 C 58.948 27.600,58.800 28.500,58.800 29.600 L 58.800 31.600 55.800 31.600 C 54.150 31.600,52.800 31.743,52.800 31.917 C 52.800 32.092,52.221 32.407,51.512 32.617 C 49.989 33.070,49.697 33.864,49.640 37.700 L 49.600 40.400 46.400 40.400 C 44.640 40.400,43.200 40.567,43.200 40.772 C 43.200 40.977,42.795 41.202,42.300 41.272 C 41.722 41.354,41.354 41.722,41.272 42.300 C 41.202 42.795,40.977 43.200,40.772 43.200 C 40.567 43.200,40.400 44.640,40.400 46.400 L 40.400 49.600 37.700 49.640 C 33.864 49.697,33.070 49.989,32.617 51.512 C 32.407 52.221,32.092 52.800,31.917 52.800 C 31.743 52.800,31.600 54.150,31.600 55.800 L 31.600 58.800 29.600 58.800 C 28.500 58.800,27.600 58.948,27.600 59.129 C 27.600 59.311,26.931 59.626,26.113 59.829 C 24.877 60.138,24.561 60.436,24.238 61.600 C 24.024 62.370,23.695 63.105,23.507 63.234 C 23.319 63.363,23.055 66.288,22.921 69.734 L 22.676 76.000 19.338 76.000 C 17.379 76.000,16.000 76.165,16.000 76.400 C 16.000 76.620,15.726 76.800,15.390 76.800 C 14.297 76.800,14.000 78.737,14.000 85.855 C 14.000 94.197,14.097 94.000,10.002 94.000 C 6.988 94.000,5.600 94.446,5.600 95.414 C 5.600 95.736,5.420 96.000,5.200 96.000 C 4.946 96.000,4.800 99.067,4.800 104.400 L 4.800 112.800 2.400 112.800 L 0.000 112.800 0.000 164.800 L 0.000 216.800 2.400 216.800 L 4.800 216.800 4.800 224.800 C 4.800 229.867,4.947 232.800,5.200 232.800 C 5.420 232.800,5.600 233.177,5.600 233.637 C 5.600 234.138,5.921 234.559,6.400 234.684 C 6.840 234.799,7.200 235.052,7.200 235.247 C 7.200 235.441,8.505 235.603,10.100 235.606 C 14.152 235.615,13.904 235.084,14.062 244.081 C 14.225 253.369,13.943 252.846,18.918 253.106 L 22.687 253.303 22.900 259.301 C 23.017 262.600,23.285 265.412,23.495 265.549 C 23.705 265.687,24.009 266.340,24.171 267.000 C 24.685 269.098,27.020 270.392,30.300 270.398 L 31.600 270.400 31.600 273.200 C 31.600 274.800,31.771 276.000,32.000 276.000 C 32.220 276.000,32.406 276.495,32.413 277.100 C 32.436 279.150,33.189 279.610,36.956 279.876 L 40.400 280.119 40.400 282.859 C 40.400 284.420,40.572 285.600,40.800 285.600 C 41.020 285.600,41.200 285.920,41.200 286.311 C 41.200 287.779,42.796 288.543,46.241 288.724 L 49.493 288.895 49.708 292.147 C 50.043 297.237,49.976 297.172,55.300 297.497 L 58.800 297.711 58.800 298.855 C 58.800 299.485,58.980 300.000,59.200 300.000 C 59.420 300.000,59.600 300.442,59.600 300.981 C 59.600 302.537,60.427 303.945,61.661 304.491 C 62.288 304.768,62.800 305.118,62.800 305.269 C 62.800 305.419,63.790 305.666,65.000 305.817 C 66.210 305.968,67.200 306.251,67.200 306.446 C 67.200 306.641,69.180 306.800,71.600 306.800 L 76.000 306.800 76.000 309.800 C 76.000 311.450,76.167 312.800,76.372 312.800 C 76.577 312.800,76.802 313.205,76.872 313.700 C 76.954 314.278,77.322 314.646,77.900 314.728 C 78.395 314.798,78.800 315.023,78.800 315.228 C 78.800 315.444,81.979 315.600,86.400 315.600 L 94.000 315.600 94.002 318.300 C 94.007 324.498,93.801 324.389,105.500 324.396 L 113.200 324.400 113.200 325.600 C 113.200 326.260,113.366 326.800,113.569 326.800 C 113.772 326.800,114.142 327.420,114.392 328.177 C 114.689 329.076,115.255 329.734,116.023 330.074 C 116.671 330.361,117.200 330.723,117.200 330.880 C 117.200 331.036,117.875 331.288,118.700 331.440 C 119.525 331.591,120.309 331.882,120.441 332.087 C 121.069 333.051,126.296 333.181,164.400 333.181 C 204.968 333.180,207.764 333.093,209.068 331.789 C 209.392 331.465,210.004 331.200,210.429 331.200 C 210.853 331.200,211.200 331.054,211.200 330.875 C 211.200 330.696,211.802 330.313,212.538 330.024 C 213.470 329.659,214.024 329.090,214.364 328.150 C 214.632 327.407,215.008 326.800,215.199 326.800 C 215.390 326.800,215.604 326.305,215.673 325.700 L 215.800 324.600 224.915 324.400 C 234.518 324.189,234.778 324.134,234.794 322.300 C 234.797 321.915,234.980 321.600,235.200 321.600 C 235.431 321.600,235.600 320.333,235.600 318.600 L 235.600 315.600 243.000 315.600 C 247.316 315.600,250.400 315.444,250.400 315.227 C 250.400 315.021,250.888 314.796,251.484 314.727 C 252.812 314.572,253.105 313.692,253.160 309.700 L 253.200 306.800 257.767 306.800 C 261.029 306.800,262.400 306.657,262.567 306.300 C 262.753 305.900,262.847 305.900,263.033 306.300 C 263.198 306.653,264.491 306.800,267.433 306.800 L 271.600 306.800 271.600 310.400 C 271.600 315.294,271.906 315.600,276.800 315.600 L 280.400 315.600 280.400 319.195 C 280.400 324.205,280.598 324.400,285.689 324.400 L 289.600 324.400 289.600 328.320 C 289.600 333.244,289.556 333.200,294.480 333.200 L 298.400 333.200 298.400 337.111 C 298.400 342.202,298.595 342.400,303.605 342.400 L 307.200 342.400 307.200 346.111 C 307.200 350.975,307.430 351.200,312.405 351.200 L 316.000 351.200 316.000 354.795 C 316.000 359.770,316.225 360.000,321.089 360.000 L 324.800 360.000 324.800 363.595 C 324.800 368.605,324.998 368.800,330.089 368.800 L 334.000 368.800 334.000 372.720 C 334.000 377.644,333.956 377.600,338.880 377.600 L 342.800 377.600 342.800 381.511 C 342.800 386.602,342.995 386.800,348.005 386.800 L 351.600 386.800 351.600 390.400 C 351.600 395.294,351.906 395.600,356.800 395.600 L 360.400 395.600 360.400 397.800 L 360.400 400.000 378.000 400.000 L 395.600 400.000 395.600 397.800 L 395.600 395.600 397.800 395.600 L 400.000 395.600 400.000 378.000 L 400.000 360.400 397.800 360.400 L 395.600 360.400 395.600 356.800 C 395.600 351.906,395.294 351.600,390.400 351.600 L 386.800 351.600 386.800 348.005 C 386.800 342.995,386.602 342.800,381.511 342.800 L 377.600 342.800 377.600 338.880 C 377.600 336.364,377.428 334.788,377.120 334.480 C 376.812 334.172,375.236 334.000,372.720 334.000 L 368.800 334.000 368.800 330.089 C 368.800 324.998,368.605 324.800,363.595 324.800 L 360.000 324.800 360.000 321.089 C 360.000 316.225,359.770 316.000,354.795 316.000 L 351.200 316.000 351.200 312.405 C 351.200 307.430,350.975 307.200,346.111 307.200 L 342.400 307.200 342.400 303.605 C 342.400 298.595,342.202 298.400,337.111 298.400 L 333.200 298.400 333.200 294.480 C 333.200 289.556,333.244 289.600,328.320 289.600 L 324.400 289.600 324.400 285.689 C 324.400 280.598,324.205 280.400,319.195 280.400 L 315.600 280.400 315.600 276.800 C 315.600 271.906,315.294 271.600,310.400 271.600 L 306.800 271.600 306.800 267.800 C 306.800 265.533,306.639 264.000,306.400 264.000 C 306.180 264.000,306.000 263.730,306.000 263.400 C 306.000 263.070,305.685 262.786,305.300 262.768 C 304.748 262.744,304.726 262.688,305.193 262.504 C 306.590 261.956,306.800 261.266,306.800 257.229 L 306.800 253.200 309.700 253.160 C 313.692 253.105,314.572 252.812,314.727 251.484 C 314.796 250.888,315.021 250.400,315.227 250.400 C 315.444 250.400,315.600 247.316,315.600 243.000 L 315.600 235.600 318.600 235.600 C 320.250 235.600,321.600 235.443,321.600 235.250 C 321.600 235.058,322.116 234.797,322.746 234.671 C 324.286 234.363,324.400 233.623,324.400 223.950 L 324.400 216.000 325.571 216.000 C 326.216 216.000,326.981 215.773,327.271 215.495 C 327.562 215.218,328.295 214.772,328.900 214.504 C 329.505 214.236,330.000 213.846,330.000 213.637 C 330.000 213.428,330.281 212.976,330.624 212.633 C 330.968 212.289,331.358 211.331,331.491 210.504 C 331.624 209.677,332.018 208.790,332.366 208.532 C 333.794 207.479,333.448 119.600,332.016 119.600 C 331.845 119.600,331.610 118.892,331.494 118.027 C 331.273 116.379,329.319 114.000,328.186 114.000 C 327.864 114.000,327.600 113.843,327.600 113.651 C 327.600 113.459,326.880 113.187,326.000 113.046 L 324.400 112.791 324.396 105.295 C 324.389 93.829,324.485 94.007,318.300 94.002 L 315.600 94.000 315.600 86.400 C 315.600 81.979,315.444 78.800,315.228 78.800 C 315.023 78.800,314.798 78.395,314.728 77.900 C 314.646 77.322,314.278 76.954,313.700 76.872 C 313.205 76.802,312.800 76.577,312.800 76.372 C 312.800 76.167,311.450 76.000,309.800 76.000 L 306.800 76.000 306.800 71.600 C 306.800 69.180,306.643 67.200,306.452 67.200 C 306.260 67.200,305.981 66.120,305.832 64.800 C 305.682 63.480,305.409 62.400,305.224 62.400 C 305.038 62.400,304.772 61.944,304.632 61.386 C 304.365 60.322,303.048 59.600,301.374 59.600 C 300.838 59.600,300.400 59.420,300.400 59.200 C 300.400 58.980,299.795 58.800,299.055 58.800 L 297.711 58.800 297.497 55.300 C 297.172 49.976,297.237 50.043,292.147 49.708 L 288.895 49.493 288.724 46.241 C 288.543 42.796,287.779 41.200,286.311 41.200 C 285.920 41.200,285.600 41.020,285.600 40.800 C 285.600 40.572,284.420 40.400,282.859 40.400 L 280.119 40.400 279.876 36.956 C 279.610 33.189,279.150 32.436,277.100 32.413 C 276.495 32.406,276.000 32.220,276.000 32.000 C 276.000 31.771,274.800 31.600,273.200 31.600 L 270.400 31.600 270.398 30.300 C 270.392 27.020,269.098 24.685,267.000 24.171 C 266.340 24.009,265.687 23.705,265.549 23.495 C 265.412 23.285,262.593 23.017,259.286 22.900 L 253.273 22.686 253.137 18.963 C 252.952 13.935,253.504 14.223,243.781 14.077 L 235.600 13.954 235.600 10.777 C 235.600 9.030,235.433 7.600,235.228 7.600 C 235.023 7.600,234.798 7.195,234.728 6.700 C 234.646 6.122,234.278 5.754,233.700 5.672 C 233.205 5.602,232.800 5.377,232.800 5.172 C 232.800 4.955,229.468 4.800,224.800 4.800 L 216.800 4.800 216.800 2.400 L 216.800 0.000 164.800 0.000 L 112.800 0.000 112.800 2.400 M191.600 51.000 C 191.600 52.210,191.780 53.200,192.000 53.200 C 192.220 53.200,192.402 53.605,192.405 54.100 C 192.424 57.227,193.657 57.600,203.967 57.600 L 211.095 57.600 211.322 59.291 C 211.446 60.222,211.740 61.047,211.974 61.125 C 212.208 61.203,212.400 61.489,212.400 61.761 C 212.400 62.931,215.491 64.800,217.426 64.800 C 218.025 64.800,218.400 65.031,218.400 65.400 C 218.400 65.730,218.670 66.000,219.000 66.000 C 219.330 66.000,219.600 66.180,219.600 66.400 C 219.600 66.638,221.115 66.800,223.345 66.800 L 227.090 66.800 227.368 69.876 C 227.697 73.499,228.662 74.800,231.021 74.800 C 231.779 74.800,232.400 74.980,232.400 75.200 C 232.400 75.421,233.452 75.600,234.755 75.600 L 237.109 75.600 237.388 77.462 C 237.542 78.487,237.878 79.552,238.134 79.830 C 238.390 80.108,238.960 80.793,239.400 81.352 C 239.960 82.064,240.890 82.518,242.500 82.864 C 243.765 83.137,244.800 83.575,244.800 83.837 C 244.800 84.100,245.070 84.418,245.400 84.545 C 245.777 84.689,246.000 85.301,246.000 86.187 C 246.000 86.964,246.180 87.600,246.400 87.600 C 246.620 87.600,246.800 88.006,246.800 88.501 C 246.800 89.517,248.793 91.600,249.764 91.600 C 250.114 91.600,250.400 91.780,250.400 92.000 C 250.400 92.220,250.985 92.403,251.700 92.406 C 253.665 92.415,253.858 92.725,254.154 96.358 C 254.475 100.283,255.305 101.581,257.500 101.593 C 258.215 101.597,258.800 101.780,258.800 102.000 C 258.800 102.220,259.700 102.400,260.800 102.400 L 262.800 102.400 262.805 105.900 C 262.812 109.847,263.064 111.200,263.796 111.200 C 264.072 111.200,264.413 111.919,264.554 112.800 C 264.694 113.680,264.987 114.400,265.205 114.400 C 265.422 114.400,265.603 114.625,265.607 114.900 C 265.617 115.650,267.316 117.114,268.530 117.418 C 269.119 117.566,269.600 117.847,269.600 118.043 C 269.600 118.240,270.050 118.400,270.600 118.400 L 271.600 118.400 271.600 126.200 C 271.600 130.799,271.754 134.000,271.976 134.000 C 272.183 134.000,272.408 134.675,272.476 135.500 C 272.567 136.596,272.839 137.105,273.488 137.390 C 273.976 137.604,274.486 138.279,274.620 138.890 C 274.754 139.500,275.029 140.000,275.232 140.000 C 275.434 140.000,275.603 140.225,275.607 140.500 C 275.617 141.196,277.204 142.624,278.381 142.996 C 280.471 143.655,280.400 142.888,280.400 164.964 L 280.400 185.585 279.400 185.836 C 278.850 185.974,278.400 186.203,278.400 186.346 C 278.400 186.488,277.869 186.840,277.219 187.127 C 276.569 187.415,275.916 188.036,275.766 188.506 C 275.617 188.977,275.248 189.609,274.947 189.910 C 274.646 190.211,274.400 190.714,274.400 191.029 C 274.400 191.343,274.195 191.600,273.944 191.600 C 273.179 191.600,272.426 192.928,272.413 194.300 C 272.406 195.015,272.220 195.600,272.000 195.600 C 271.748 195.600,271.600 198.333,271.600 203.000 L 271.600 210.400 270.600 210.400 C 270.050 210.400,269.600 210.580,269.600 210.800 C 269.600 211.020,269.178 211.200,268.661 211.200 C 268.145 211.200,267.290 211.576,266.761 212.035 C 266.233 212.494,265.573 212.997,265.296 213.153 C 265.019 213.309,264.574 214.508,264.307 215.818 C 264.041 217.128,263.593 218.344,263.311 218.520 C 262.950 218.746,262.800 220.048,262.800 222.961 L 262.800 227.081 259.502 227.336 C 257.688 227.476,256.143 227.772,256.068 227.995 C 255.994 228.218,255.693 228.400,255.400 228.400 C 254.737 228.400,254.000 231.658,254.000 234.588 C 254.000 236.959,254.291 236.739,250.300 237.391 C 249.475 237.526,248.800 237.787,248.800 237.971 C 248.800 238.156,248.459 238.396,248.042 238.505 C 247.594 238.622,247.173 239.212,247.011 239.951 C 246.860 240.638,246.571 241.200,246.368 241.200 C 246.166 241.200,246.000 241.802,246.000 242.539 C 246.000 244.441,244.935 245.471,242.607 245.820 C 241.528 245.982,240.454 246.263,240.222 246.446 C 237.840 248.317,237.526 248.810,237.087 251.375 L 236.638 254.000 234.538 254.000 C 231.652 254.000,228.400 254.742,228.400 255.400 C 228.400 255.693,228.218 255.994,227.995 256.068 C 227.772 256.143,227.477 257.673,227.338 259.469 L 227.087 262.734 222.528 262.867 C 219.806 262.946,217.855 263.177,217.685 263.438 C 217.528 263.680,216.516 263.995,215.434 264.140 C 213.326 264.422,211.200 266.195,211.200 267.672 C 211.200 268.072,211.031 268.400,210.824 268.400 C 210.617 268.400,210.392 269.075,210.324 269.900 L 210.200 271.400 202.900 271.509 C 198.487 271.575,195.600 271.773,195.600 272.009 C 195.600 272.224,195.165 272.400,194.633 272.400 C 193.252 272.400,192.400 272.798,192.400 273.443 C 192.400 273.749,192.220 274.000,192.000 274.000 C 191.780 274.000,191.600 274.335,191.600 274.744 C 191.600 275.153,191.127 275.828,190.548 276.244 C 189.032 277.334,187.866 278.488,187.356 279.403 C 186.924 280.180,141.520 280.934,138.542 280.214 C 137.770 280.027,137.670 279.686,137.538 276.767 C 137.379 273.274,136.856 272.400,134.924 272.400 C 134.416 272.400,134.000 272.220,134.000 272.000 C 134.000 271.747,131.215 271.600,126.445 271.600 L 118.891 271.600 118.613 269.749 C 118.461 268.730,118.175 267.695,117.979 267.449 C 116.235 265.253,115.564 264.778,113.561 264.322 C 112.372 264.052,111.162 263.599,110.871 263.315 C 110.512 262.965,109.071 262.800,106.371 262.800 L 102.400 262.800 102.400 260.800 C 102.400 259.700,102.220 258.800,102.000 258.800 C 101.780 258.800,101.597 258.215,101.593 257.500 C 101.581 255.305,100.283 254.475,96.358 254.154 C 92.725 253.858,92.415 253.665,92.406 251.700 C 92.403 250.985,92.220 250.400,92.000 250.400 C 91.780 250.400,91.600 250.114,91.600 249.764 C 91.600 248.793,89.517 246.800,88.501 246.800 C 88.006 246.800,87.600 246.620,87.600 246.400 C 87.600 246.180,86.964 246.000,86.187 246.000 C 85.301 246.000,84.689 245.777,84.545 245.400 C 84.418 245.070,84.100 244.800,83.837 244.800 C 83.575 244.800,83.137 243.765,82.864 242.500 C 82.518 240.890,82.064 239.960,81.352 239.400 C 80.793 238.960,80.108 238.390,79.830 238.134 C 79.552 237.878,78.487 237.542,77.462 237.388 L 75.600 237.109 75.600 234.755 C 75.600 233.452,75.421 232.400,75.200 232.400 C 74.980 232.400,74.800 231.779,74.800 231.021 C 74.800 228.662,73.499 227.697,69.876 227.368 L 66.800 227.090 66.800 223.345 C 66.800 221.115,66.638 219.600,66.400 219.600 C 66.180 219.600,66.000 219.330,66.000 219.000 C 66.000 218.670,65.730 218.400,65.400 218.400 C 65.031 218.400,64.800 218.025,64.800 217.426 C 64.800 215.491,62.931 212.400,61.761 212.400 C 61.489 212.400,61.203 212.208,61.125 211.974 C 61.047 211.740,60.222 211.446,59.291 211.322 L 57.600 211.095 57.600 203.967 C 57.600 195.512,57.182 192.911,55.767 192.556 C 55.235 192.422,54.800 192.153,54.800 191.957 C 54.800 191.760,53.735 191.600,52.433 191.600 C 51.131 191.600,49.781 191.491,49.433 191.357 C 48.865 191.139,48.800 188.392,48.800 164.415 L 48.800 137.715 52.070 137.442 C 54.847 137.211,55.495 137.015,56.370 136.139 L 57.400 135.109 57.543 126.177 L 57.686 117.245 58.843 116.991 C 59.479 116.851,60.000 116.571,60.000 116.368 C 60.000 116.166,60.225 115.997,60.500 115.993 C 61.176 115.984,62.620 114.409,62.970 113.300 C 63.126 112.805,63.422 112.400,63.627 112.400 C 63.832 112.400,64.000 112.130,64.000 111.800 C 64.000 111.427,64.378 111.200,65.000 111.200 C 65.622 111.200,66.000 110.973,66.000 110.600 C 66.000 110.270,66.180 110.000,66.400 110.000 C 66.639 110.000,66.800 108.467,66.800 106.200 C 66.800 102.413,66.804 102.400,67.800 102.400 C 68.350 102.400,68.800 102.220,68.800 102.000 C 68.800 101.780,69.582 101.600,70.538 101.600 C 73.086 101.600,74.450 100.304,74.706 97.640 C 74.814 96.518,75.059 95.600,75.251 95.600 C 75.443 95.600,75.600 94.880,75.600 94.000 C 75.600 92.844,75.767 92.400,76.200 92.400 C 76.530 92.400,76.800 92.244,76.800 92.052 C 76.800 91.861,77.412 91.605,78.160 91.484 C 80.229 91.148,82.299 88.911,82.829 86.437 C 83.105 85.151,83.475 84.400,83.833 84.400 C 84.145 84.400,84.400 84.040,84.400 83.600 C 84.400 82.982,84.667 82.800,85.571 82.800 C 86.216 82.800,86.989 82.554,87.290 82.253 C 87.591 81.952,88.223 81.583,88.694 81.434 C 89.164 81.284,89.785 80.631,90.073 79.981 C 90.360 79.331,90.729 78.800,90.893 78.800 C 91.057 78.800,91.306 78.080,91.446 77.200 L 91.702 75.600 94.251 75.600 C 95.684 75.600,96.800 75.425,96.800 75.200 C 96.800 74.980,97.332 74.800,97.981 74.800 C 100.532 74.800,101.582 73.726,101.595 71.100 C 101.598 70.495,101.780 70.000,102.000 70.000 C 102.220 70.000,102.400 69.280,102.400 68.400 L 102.400 66.800 106.200 66.800 C 108.467 66.800,110.000 66.639,110.000 66.400 C 110.000 66.180,110.270 66.000,110.600 66.000 C 110.973 66.000,111.200 65.622,111.200 65.000 C 111.200 64.378,111.427 64.000,111.800 64.000 C 112.130 64.000,112.400 63.832,112.400 63.627 C 112.400 63.422,112.805 63.126,113.300 62.970 C 114.409 62.620,115.984 61.176,115.993 60.500 C 115.997 60.225,116.166 60.000,116.368 60.000 C 116.571 60.000,116.851 59.479,116.991 58.843 L 117.245 57.686 126.177 57.543 L 135.109 57.400 136.139 56.370 C 137.015 55.495,137.211 54.847,137.442 52.070 L 137.715 48.800 164.658 48.800 L 191.600 48.800 191.600 51.000 " stroke="none" fill="#0494ac" fill-rule="evenodd"></path><path id="path1" d="" stroke="none" fill="#0894ac" fill-rule="evenodd"></path><path id="path2" d="" stroke="none" fill="#0894ac" fill-rule="evenodd"></path><path id="path3" d="" stroke="none" fill="#0894ac" fill-rule="evenodd"></path><path id="path4" d="" stroke="none" fill="#0894ac" fill-rule="evenodd"></path></g></svg>