<svg xmlns="http://www.w3.org/2000/svg" width="19" height="17" viewBox="0 0 19 17">
    <path fill="#033B5C" fill-rule="nonzero" d="M17.1 3.167H9.753c-.253 0-.506-.127-.57-.38L8.55 1.203C8.233.443 7.537 0 6.713 0H1.9C.823 0 0 .823 0 1.9v12.667c0 1.076.823 1.9 1.9 1.9h15.2c1.077 0 1.9-.824 1.9-1.9v-9.5c0-1.077-.823-1.9-1.9-1.9zm.633 11.4c0 .38-.253.633-.633.633H1.9c-.38 0-.633-.253-.633-.633V1.9c0-.38.253-.633.633-.633h4.813c.254 0 .507.126.57.38l.634 1.583c.316.76 1.013 1.203 1.836 1.203H17.1c.38 0 .633.254.633.634v9.5z"/>
</svg>
