<svg xmlns="http://www.w3.org/2000/svg" width="20" height="20" viewBox="0 0 20 20">
    <g fill="#0097A9" fill-rule="evenodd">
        <path fill-rule="nonzero" d="M10 .105C4.553.105.105 4.553.105 10c0 5.447 4.448 9.895 9.895 9.895 5.447 0 9.895-4.448 9.895-9.895 0-5.447-4.448-9.895-9.895-9.895zm0 18.21c-4.579 0-8.316-3.736-8.316-8.315 0-4.579 3.737-8.316 8.316-8.316 4.579 0 8.316 3.737 8.316 8.316 0 4.579-3.737 8.316-8.316 8.316z"/>
        <path d="M13.816 9.21h-3.027V6.185a.775.775 0 0 0-.789-.79.775.775 0 0 0-.79.79v3.027H6.185a.775.775 0 0 0-.79.789c0 .447.343.79.79.79h3.027v3.026c0 .447.342.79.789.79s.79-.343.79-.79v-3.027h3.026c.447 0 .79-.342.79-.789a.775.775 0 0 0-.79-.79z"/>
    </g>
</svg>
