<svg xmlns="http://www.w3.org/2000/svg" width="11" height="11" viewBox="0 0 11 11">
    <path fill="#FFF" fill-rule="evenodd" d="M9.728 8.17L7.043 5.486l2.685-2.684a1.09 1.09 0 0 0 .323-.78c0-.295-.115-.57-.321-.777A1.092 1.092 0 0 0 8.95.92c-.295 0-.573.115-.779.323L5.485 3.928 2.801 1.243A1.092 1.092 0 0 0 2.02.92c-.294 0-.57.114-.78.324a1.1 1.1 0 0 0 0 1.556L3.93 5.485 1.242 8.171a1.1 1.1 0 0 0 .001 1.558c.43.428 1.127.428 1.558 0l2.684-2.686L8.17 9.728c.208.208.485.322.78.322.295 0 .572-.114.778-.322a1.095 1.095 0 0 0 0-1.557z"/>
</svg>
