<svg xmlns="http://www.w3.org/2000/svg" width="19" height="18" viewBox="0 0 19 18">
    <g fill="#5B7F95" fill-rule="nonzero" opacity=".6">
        <path d="M10.556 11.308h7.506a.934.934 0 0 0 .938-.923V6.923A.934.934 0 0 0 18.062 6h-7.506a.934.934 0 0 0-.939.923v1.385H4.926v-3h3.518a.934.934 0 0 0 .939-.923V.923A.934.934 0 0 0 8.444 0H.938A.934.934 0 0 0 0 .923v3.462c0 .507.422.923.938.923h3.284v10.038a.346.346 0 0 0 .352.346h5.043v1.385c0 .508.423.923.939.923h7.506a.934.934 0 0 0 .938-.923v-3.462a.934.934 0 0 0-.938-.923h-7.506a.934.934 0 0 0-.939.923V15H4.926V9h4.691v1.385c0 .507.423.923.939.923z"/>
        <path d="M.704 4.385V.923c0-.125.107-.23.234-.23h7.506c.128 0 .235.105.235.23v3.462c0 .125-.107.23-.235.23H.938a.236.236 0 0 1-.234-.23zM10.321 13.615c0-.125.107-.23.235-.23h7.506c.127 0 .234.105.234.23v3.462c0 .125-.107.23-.234.23h-7.506a.236.236 0 0 1-.235-.23v-3.462zM10.321 6.923c0-.125.107-.23.235-.23h7.506c.127 0 .234.105.234.23v3.462c0 .125-.107.23-.234.23h-7.506a.236.236 0 0 1-.235-.23V6.923z"/>
    </g>
</svg>
